<?xml version="1.0" encoding="utf-8"?>
<!-- Generator: Adobe Illustrator 18.1.0, SVG Export Plug-In . SVG Version: 6.00 Build 0)  -->
<svg version="1.1" xmlns="http://www.w3.org/2000/svg" xmlns:xlink="http://www.w3.org/1999/xlink" x="0px" y="0px"
	 viewBox="0 0 634.5 593.2" enable-background="new 0 0 634.5 593.2" xml:space="preserve">
<g id="microphone-off">
	<linearGradient id="linga_2_" gradientUnits="userSpaceOnUse" x1="248.5089" y1="230.701" x2="372.5089" y2="230.701">
		<stop  offset="0" style="stop-color:#FFFFFF"/>
		<stop  offset="1" style="stop-color:#000000"/>
	</linearGradient>
	<path id="linga" fill="url(#linga_2_)" stroke="#4D4D4D" stroke-width="3" stroke-miterlimit="10" d="M310.8,381.5
		c0,0-53.3,3.2-62.3-55.5V143.2c0,0,0.6-59.3,62.3-63.2c61.8-3.9,61.7,65.9,61.7,65.9v180.3C372.5,326.2,368.8,381.5,310.8,381.5z"
		/>
	<linearGradient id="cup_2_" gradientUnits="userSpaceOnUse" x1="210.0089" y1="383.2213" x2="412.5089" y2="383.2213">
		<stop  offset="0" style="stop-color:#FFFFFF"/>
		<stop  offset="1" style="stop-color:#000000"/>
	</linearGradient>
	<path id="cup" fill="url(#cup_2_)" stroke="#666666" stroke-width="3" stroke-miterlimit="10" d="M232,273.7h-22
		c0,0,0,58.8,1.3,63.2c2.6,8.8,4.2,70.9,86.2,81.2v52.6H243l-0.3,23h134.8v-24.5l-55,0.5v-51.5c0,0,87.8-9.3,90-85.8v-59.2
		l-21.9-0.5l-2.3,54.5c0,0-6.7,68.5-77,67.9c-70.3-0.7-75.7-62.2-75.7-62.2L232,273.7z"/>
</g>
<g id="microphone-not-connected">
	<linearGradient id="linga_3_" gradientUnits="userSpaceOnUse" x1="248.5089" y1="230.701" x2="372.5089" y2="230.701">
		<stop  offset="0" style="stop-color:#FFFFFF"/>
		<stop  offset="1" style="stop-color:#000000"/>
	</linearGradient>
	<path id="linga_1_" fill="url(#linga_3_)" stroke="#4D4D4D" stroke-width="3" stroke-miterlimit="10" d="M310.8,381.5
		c0,0-53.3,3.2-62.3-55.5V143.2c0,0,0.6-59.3,62.3-63.2c61.8-3.9,61.7,65.9,61.7,65.9v180.3C372.5,326.2,368.8,381.5,310.8,381.5z"
		/>
	<linearGradient id="cup_3_" gradientUnits="userSpaceOnUse" x1="210.0089" y1="383.2213" x2="412.5089" y2="383.2213">
		<stop  offset="0" style="stop-color:#FFFFFF"/>
		<stop  offset="1" style="stop-color:#000000"/>
	</linearGradient>
	<path id="cup_1_" fill="url(#cup_3_)" stroke="#666666" stroke-width="3" stroke-miterlimit="10" d="M232,273.7h-22
		c0,0,0,58.8,1.3,63.2c2.6,8.8,4.2,70.9,86.2,81.2v52.6H243l-0.3,23h134.8v-24.5l-55,0.5v-51.5c0,0,87.8-9.3,90-85.8v-59.2
		l-21.9-0.5l-2.3,54.5c0,0-6.7,68.5-77,67.9c-70.3-0.7-75.7-62.2-75.7-62.2L232,273.7z"/>

		<radialGradient id="wire_1_" cx="214.3559" cy="481.3949" r="127.9497" gradientTransform="matrix(0.9566 -0.1984 0.2217 0.9708 -102.3959 34.5812)" gradientUnits="userSpaceOnUse">
		<stop  offset="0" style="stop-color:#FFFFFF"/>
		<stop  offset="8.510864e-02" style="stop-color:#FFECD8"/>
		<stop  offset="0.2082" style="stop-color:#FFD5A7"/>
		<stop  offset="0.3345" style="stop-color:#FFC07D"/>
		<stop  offset="0.462" style="stop-color:#FFAF5B"/>
		<stop  offset="0.591" style="stop-color:#FFA340"/>
		<stop  offset="0.7222" style="stop-color:#FF992D"/>
		<stop  offset="0.8568" style="stop-color:#FF9422"/>
		<stop  offset="1" style="stop-color:#FF921E"/>
	</radialGradient>
	<path id="wire" fill="url(#wire_1_)" stroke="#4D4D4D" stroke-width="1.169" stroke-miterlimit="10" d="M172,358.8l-5.1-2.1
		c0,0-24.4,33.5-17.6,60c0,0,0.5,13.5,15.9,30.7c14.4,16.1-49.2,54.8-49.2,54.8s-74,40.2,8,56.4c82,16.2,138.6-9.7,138.6-9.7
		l3.3,8.7l60.9-7.5l1.6-8.4l9.6,0.3c0,0,4.7-5.5,7.5-1.7l3.6,5.1c0,0,22-5.2,19.3-8.3S352,527,352,527l-4.1,3.2c0,0-6.4,5.3-9.5,1.2
		l-10.5,0.9l-4.7-6.3l-59.1,7.4l-1.5,8.1c0,0-94.2,16.3-135.3,7.5c0,0-58.5-10.4-7.4-36.7c56.5-29.1,67.5-52.7,58.7-64.5
		c-18.5-25-31.7-50.9-9.7-75.2C221,315.2,164,380.2,172,358.8z"/>
	<rect x="400.6" y="409.2" fill="none" width="214.3" height="109.3"/>
	<text id="oops-text" transform="matrix(1 0 0 1 400.6439 428.3879)"><tspan x="0" y="0" fill="#F6921E" stroke="#000000" stroke-miterlimit="10" font-family="'MyriadPro-Regular'" font-size="27">           oops !</tspan><tspan x="0" y="32.4" fill="#F6921E" stroke="#000000" stroke-miterlimit="10" font-family="'MyriadPro-Regular'" font-size="27">Mic not connected</tspan></text>
</g>
</svg>
